<svg width="29" height="29" viewBox="0 0 29 29" fill="none" xmlns="http://www.w3.org/2000/svg">
<g clip-path="url(#clip0_10_3)">
<path d="M23.3926 0.0906091C24.1119 0.283186 24.2082 0.362482 26.3266 2.46385C27.4254 3.55135 28.4109 4.57088 28.5129 4.72948C28.8584 5.25057 28.966 5.61873 28.9604 6.28709C28.9604 6.94979 28.8527 7.33494 28.5469 7.81072C28.4563 7.95233 27.2895 9.15877 25.9584 10.4898L23.5285 12.914L22.6959 12.914L21.8633 12.914L21.8633 13.3955C21.8633 13.9392 21.784 14.1545 21.5518 14.2621C21.4611 14.3017 21.1156 14.3301 20.6455 14.3301L19.8809 14.3301L19.8809 14.7832C19.8809 15.6271 19.7223 15.7461 18.5781 15.7461L17.8418 15.7461L17.8418 16.2502C17.8418 16.7146 17.8305 16.7713 17.6945 16.9299L17.5473 17.1055L16.709 17.1055L15.865 17.1055L15.848 17.6265C15.8367 17.9154 15.8084 18.1986 15.7801 18.2553C15.7348 18.3459 16.0576 18.3515 22.1352 18.3515C26.9836 18.3515 28.5752 18.3685 28.6885 18.4195C29.0113 18.5668 29 18.3799 29 23.6701C29 27.3291 28.983 28.5808 28.932 28.6885C28.7791 29.0226 29.793 29 14.5 29C-0.792967 29 0.2209 29.0226 0.0679683 28.6885C0.0169925 28.5808 -1.46103e-07 27.3291 -4.65981e-07 23.6701C-9.28468e-07 18.3799 -0.0113287 18.5668 0.311523 18.4195C0.413476 18.3742 0.889257 18.3515 1.82949 18.3515L3.20019 18.3515L5.73203 15.8197C8.25254 13.2992 8.26953 13.2822 8.50176 13.2822C8.69434 13.2822 8.76231 13.3162 8.90391 13.4748C9.05117 13.639 9.07383 13.6957 9.04551 13.8939C9.01719 14.1092 8.86426 14.2734 6.89883 16.2389L4.78613 18.3515L8.73965 18.3515L12.6875 18.3515L12.6875 18.1533C12.6875 18.04 12.7272 17.8644 12.7725 17.7512C12.8971 17.451 13.1123 17.3887 13.9902 17.3887L14.7266 17.3887L14.7266 16.8846C14.7266 16.0803 14.8795 15.9726 16.0406 15.9726L16.709 15.9726L16.709 15.5535C16.709 14.6869 16.8053 14.6133 17.9268 14.6133L18.748 14.6133L18.748 14.0695C18.748 13.5484 18.7537 13.5201 18.9123 13.3615L19.0766 13.1972L19.8979 13.1972L20.7191 13.1972L20.7418 12.6535C20.7588 12.1211 20.7645 12.1097 20.9457 11.9455L21.127 11.7812L22.1068 11.7812L23.0811 11.7812L23.6758 11.1865L24.2705 10.5918L23.0527 10.5918L21.8406 10.5918L19.5127 8.26951L17.1904 5.94725L14.8398 8.3035C13.5484 9.60057 12.41 10.6937 12.3193 10.7334C11.9568 10.892 11.5547 10.6144 11.5547 10.2066C11.5547 10.0027 11.7359 9.81581 16.3238 5.22791C20.1527 1.41033 21.1553 0.436116 21.3932 0.317172C22.0049 0.0113112 22.7752 -0.0736498 23.3926 0.0906091ZM21.9369 1.32537C21.75 1.42733 21.059 2.07869 19.8186 3.31913L17.9834 5.15428L20.1357 7.30662L22.2881 9.45897L23.8457 9.45897L25.409 9.45897L26.5191 8.33748C27.7539 7.09139 27.8389 6.96111 27.8389 6.28709C27.8389 5.57342 27.8275 5.55643 25.8055 3.52303C24.8029 2.51483 23.8854 1.60858 23.7664 1.51229C23.2566 1.10448 22.492 1.02518 21.9369 1.32537ZM2.9793 19.5637C3.12656 19.6713 4.1291 20.1131 4.58223 20.2773C5.00703 20.4359 5.17695 20.6398 5.13164 20.9514C5.09766 21.1836 4.96738 21.3308 4.72949 21.4101C4.57656 21.4611 4.48027 21.4441 4.07246 21.2969C3.47207 21.076 2.40156 20.5605 1.68223 20.1471L1.13281 19.8299L1.13281 21.8066L1.13281 23.789L4.44629 23.789L7.75977 23.789L7.94102 23.9533C8.09395 24.0892 8.12793 24.1572 8.12793 24.3555C8.12793 24.5537 8.09395 24.6217 7.94102 24.7576L7.75977 24.9219L4.44629 24.9219L1.13281 24.9219L1.13281 26.3945L1.13281 27.8672L6.97813 27.8615L12.8291 27.8615L12.1494 27.618C10.6711 27.0855 9.51563 26.5361 9.41368 26.3096C9.2834 26.0207 9.37403 25.7035 9.64024 25.5676C10.218 25.2674 12.308 24.6103 13.5654 24.3271C15.3326 23.9306 18.3459 23.6588 18.7764 23.857C18.9406 23.9306 19.0879 24.1685 19.0879 24.3555C19.0879 24.5537 18.935 24.7859 18.765 24.8539C18.6801 24.8879 18.193 24.9275 17.6832 24.9502C16.1709 25.0068 14.7492 25.1994 13.3105 25.5506C12.6535 25.7148 11.5943 26.0264 11.4754 26.1C11.3678 26.1623 13.1859 26.8137 14.3018 27.1025C15.7121 27.4764 16.9469 27.6859 18.4365 27.8105C18.8104 27.8389 21.0873 27.8672 23.4889 27.8672L27.8672 27.8672L27.8672 26.3945L27.8672 24.9219L25.2617 24.9219C22.4693 24.9219 22.4354 24.9162 22.2824 24.633C22.1805 24.4347 22.1805 24.2762 22.2824 24.0779C22.4354 23.7947 22.4693 23.789 25.2617 23.789L27.8672 23.789L27.8672 21.6367L27.8672 19.4844L15.3666 19.4844C4.60488 19.4844 2.87734 19.4957 2.9793 19.5637Z" fill="white"/>
<path d="M24.6783 4.32168L26.3945 6.03223L26.3945 6.28711C26.3945 6.53633 26.3832 6.54766 25.6129 7.31797L24.8312 8.09961L23.8457 8.09961L22.8545 8.09961L21.5121 6.75156L20.1641 5.40918L20.1641 5.1543L20.1641 4.90508L21.3139 3.75527L22.4637 2.60547L22.7129 2.60547L22.9678 2.60547L24.6783 4.32168ZM22.1068 4.54258L21.5234 5.12598L22.441 6.04355L23.3643 6.9668L23.874 6.9668L24.3895 6.9668L24.7236 6.62695L25.0635 6.28711L23.9023 5.12598C23.2623 4.48594 22.7299 3.96484 22.7129 3.96484C22.7016 3.96484 22.424 4.22539 22.1068 4.54258Z" fill="white"/>
<path d="M25.1938 21.2119C25.392 21.3818 25.4486 21.6027 25.3467 21.8406C25.1881 22.2201 25.4203 22.2031 21.1439 22.2031C18.2723 22.2031 17.2414 22.1861 17.1338 22.1352C16.9695 22.0615 16.8223 21.8236 16.8223 21.6367C16.8223 21.4498 16.9695 21.2119 17.1338 21.1383C17.2414 21.0873 18.2723 21.0703 21.1553 21.0703L25.0238 21.0703L25.1938 21.2119Z" fill="white"/>
<path d="M14.7775 21.1496C15.157 21.3592 15.1457 21.9596 14.7549 22.1352C14.6473 22.1861 13.8486 22.2031 11.7756 22.2031C8.75098 22.2031 8.7 22.1975 8.55274 21.9256C8.4791 21.784 8.4791 21.4895 8.55274 21.3479C8.7 21.076 8.74531 21.0703 11.7926 21.0703C14.0469 21.076 14.6699 21.0873 14.7775 21.1496Z" fill="white"/>
<path d="M10.4785 11.5037C10.824 11.6396 10.9543 11.9682 10.7957 12.2797C10.6824 12.4949 10.5465 12.5742 10.2803 12.5742C9.99707 12.5742 9.74219 12.325 9.74219 12.0418C9.74219 11.6736 10.15 11.3791 10.4785 11.5037Z" fill="white"/>
</g>
<defs>
<clipPath id="clip0_10_3">
<rect width="29" height="29" fill="white" transform="matrix(-1 8.74228e-08 8.74228e-08 1 29 0)"/>
</clipPath>
</defs>
</svg>
