<svg width="81" height="73" viewBox="0 0 81 73" fill="none" xmlns="http://www.w3.org/2000/svg">
<path d="M67.716 47.5947C69.1335 44.1779 69.903 40.5198 69.903 36.5C69.903 33.6057 69.4575 30.832 68.688 28.2594C66.0555 28.8623 63.3015 29.1839 60.426 29.1839C48.033 29.1839 37.0575 23.114 30.375 13.7478C26.7705 22.4306 19.8855 29.5055 11.2185 33.3645C11.0565 34.3695 11.0565 35.4548 11.0565 36.5C11.0565 44.2507 14.1586 51.684 19.6803 57.1646C25.202 62.6452 32.6911 65.7241 40.5 65.7241C44.7525 65.7241 48.843 64.7996 52.5285 63.1514C54.837 67.533 55.89 69.7038 55.809 69.7038C49.167 71.9146 44.0235 73 40.5 73C30.699 73 21.3435 69.1812 14.4585 62.3073C10.2465 58.1267 7.128 53.0215 5.3865 47.4741H0V29.1839H4.4145C7.8165 12.5419 22.68 0 40.5 0C50.22 0 59.5755 3.81883 66.501 10.6927C71.6445 15.7577 75.087 22.2296 76.5045 29.1839H81V47.2329V47.3133V47.4741H80.757L66.339 60.6189L44.874 58.2071V51.4939H64.4355L67.716 47.5947ZM29.4435 35.5754C30.6585 35.5754 31.833 36.0578 32.6835 36.9422C33.534 37.7863 34.02 38.9521 34.02 40.158C34.02 41.364 33.534 42.5297 32.6835 43.3739C31.833 44.2181 30.6585 44.7004 29.4435 44.7004C26.892 44.7004 24.8265 42.6905 24.8265 40.158C24.8265 37.6256 26.892 35.5754 29.4435 35.5754ZM51.516 35.5754C54.0675 35.5754 56.0925 37.6256 56.0925 40.158C56.0925 42.6905 54.0675 44.7004 51.516 44.7004C48.9645 44.7004 46.899 42.6905 46.899 40.158C46.899 38.9427 47.3854 37.7771 48.2513 36.9177C49.1171 36.0583 50.2915 35.5754 51.516 35.5754Z" fill="white"/>
</svg>
