<svg width="85" height="76" viewBox="0 0 85 76" fill="none" xmlns="http://www.w3.org/2000/svg">
<path d="M42.925 64.4033L42.5 64.8174L42.0325 64.4033C21.845 46.5526 8.5 34.7488 8.5 22.7793C8.5 14.4959 14.875 8.28338 23.375 8.28338C29.92 8.28338 36.295 12.4251 38.5475 18.0578H46.4525C48.705 12.4251 55.08 8.28338 61.625 8.28338C70.125 8.28338 76.5 14.4959 76.5 22.7793C76.5 34.7488 63.155 46.5526 42.925 64.4033ZM61.625 0C54.23 0 47.1325 3.35477 42.5 8.61471C37.8675 3.35477 30.77 0 23.375 0C10.285 0 0 9.98147 0 22.7793C0 38.3935 14.45 51.1913 36.3375 70.533L42.5 76L48.6625 70.533C70.55 51.1913 85 38.3935 85 22.7793C85 9.98147 74.715 0 61.625 0Z" fill="#EEEEEE"/>
</svg>
