<svg width="62" height="64" viewBox="0 0 62 64" fill="none" xmlns="http://www.w3.org/2000/svg">
<path d="M43.9979 35.488L62 53.376L51.3842 63.872L33.5101 45.984V43.04L41.0562 35.488H43.9979ZM46.9077 27.392L43.8061 24.32L28.4899 39.68V45.984L10.4879 64L0 53.376L17.8742 35.488H24.1733L26.6674 32.992L14.3889 20.672H10.2321L1.24703 11.584L9.62455 3.2L18.5776 12.16V16.352L31.016 28.64L39.5214 20.128L36.4518 16.896L40.6086 12.704H32.1031L30.0248 10.624L40.6086 0L42.7189 2.112V10.624L46.9077 6.4L57.3956 16.896C60.8809 20.416 60.8809 26.144 57.3956 29.632L51.0964 23.2L46.9077 27.392Z" fill="white"/>
</svg>
